PathFileType	4	(X/Y/Z)	C:\Users\Basilio\Documents\Thesis Gigler\squatting_fais\c3dfiles\041\SLS_pre_back1\markers_experimental.trc
DataRate	CameraRate	NumFrames	NumMarkers	Units	OrigDataRate	OrigDataStartFrame	OrigNumFrames
200.000000	200.000000	4	62	mm	200.000000	651	1738
Frame#	Time	FHD			LBHD			RBHD			C7			T10			CLAV			LSHO			LUUPA			LMUPA			LDUPA			LLEP			LMEP			LRAD			LUL			LRFIN			RSHO			RUPA1			RMUPA			RDUPA			RLEP			RMEP			RRAD			RUL			RUFIN			LASI			RASI			USACR			LSACR			RSACR			LTHI1			LTHI2			LTHI3			LTHI4			LLFC			LMFC			LTIB1			LTIB2			LTIB3			LTIB4			LLMAL			LMMAL			LHEE			LMT1			LMT2			LMT5			RTHI			RTHI2			RTHI3			RTHI4			RLFC			RMFC			RTIB1			RTIB2			RTIB3			RTIB4			RLMAL			RMMAL			RHEE			RMT1			RMT2			RMT5			*61			
		X1	Y1	Z1	X2	Y2	Z2	X3	Y3	Z3	X4	Y4	Z4	X5	Y5	Z5	X6	Y6	Z6	X7	Y7	Z7	X8	Y8	Z8	X9	Y9	Z9	X10	Y10	Z10	X11	Y11	Z11	X12	Y12	Z12	X13	Y13	Z13	X14	Y14	Z14	X15	Y15	Z15	X16	Y16	Z16	X17	Y17	Z17	X18	Y18	Z18	X19	Y19	Z19	X20	Y20	Z20	X21	Y21	Z21	X22	Y22	Z22	X23	Y23	Z23	X24	Y24	Z24	X25	Y25	Z25	X26	Y26	Z26	X27	Y27	Z27	X28	Y28	Z28	X29	Y29	Z29	X30	Y30	Z30	X31	Y31	Z31	X32	Y32	Z32	X33	Y33	Z33	X34	Y34	Z34	X35	Y35	Z35	X36	Y36	Z36	X37	Y37	Z37	X38	Y38	Z38	X39	Y39	Z39	X40	Y40	Z40	X41	Y41	Z41	X42	Y42	Z42	X43	Y43	Z43	X44	Y44	Z44	X45	Y45	Z45	X46	Y46	Z46	X47	Y47	Z47	X48	Y48	Z48	X49	Y49	Z49	X50	Y50	Z50	X51	Y51	Z51	X52	Y52	Z52	X53	Y53	Z53	X54	Y54	Z54	X55	Y55	Z55	X56	Y56	Z56	X57	Y57	Z57	X58	Y58	Z58	X59	Y59	Z59	X60	Y60	Z60	X61	Y61	Z61	X62	Y62	Z62	

652	3.255	-155.9845123291016	1772.724975585938	-1123.442749023438	-327.8041076660157	1694.279907226563	-1199.236572265625	-309.8248596191407	1701.566528320313	-1047.339965820313	-362.8484802246094	1551.914672851563	-1132.330932617188	-403.1712951660157	1244.095947265625	-1111.361694335938	-202.0104064941407	1494.945556640625	-1133.35791015625	-286.7847595214844	1562.012451171875	-1272.3173828125	-167.6600036621094	1537.191162109375	-1383.068359375	-127.037712097168	1551.066772460938	-1359.816772460938	-105.0160140991211	1533.07373046875	-1414.231689453125	-57.42432022094728	1526.201904296875	-1424.7958984375	-28.86906242370606	1455.381958007813	-1385.438842773438	223.6666564941407	1547.132690429688	-1394.514038085938	210.0667572021485	1539.136596679688	-1466.731689453125	288.6817321777344	1586.457153320313	-1410.062377929688	-277.7298278808594	1573.274291992188	-1004.093444824219	-131.7462310791016	1556.109619140625	-887.2028808593752	-113.1809463500977	1583.833374023438	-925.2656860351565	-64.65581512451173	1578.326171875	-891.382507324219	-19.42150115966797	1583.035278320313	-891.868591308594	0.004699365235865117	1502.295654296875	-917.8054809570315	243.0643920898438	1586.221069335938	-971.0476684570315	243.2734832763672	1602.591796875	-896.8005371093752	325.0534667968751	1604.825927734375	-976.5775146484377	-236.7208709716797	1037.81396484375	-1194.16943359375	-260.0625000000001	1046.237060546875	-967.6994628906252	-417.8450317382814	1134.538330078125	-1104.98583984375	-433.5342407226564	1108.438842773438	-1131.443969726563	-439.687713623047	1112.315673828125	-1077.18115234375	-341.2799682617188	830.5715942382815	-1255.945678710938	-300.3526611328126	757.3238525390626	-1243.631958007813	-253.1843261718751	765.9439697265626	-1232.9150390625	-323.1703186035157	702.5343627929689	-1230.346557617188	-292.7485656738282	527.8709716796876	-1195.008544921875	-291.8940734863282	522.0059814453126	-1075.693725585938	-283.2483520507813	341.5125427246094	-1117.234130859375	-331.3959350585938	297.0053710937501	-1176.460083007813	-295.2831420898438	291.4815673828126	-1148.789794921875	-309.0623779296876	219.6899108886719	-1107.678833007813	-375.9559326171876	128.4532775878907	-1139.22607421875	-344.3313293457032	141.1021881103516	-1056.369384765625	-444.6397094726564	112.5946044921875	-1096.8369140625	-242.3732604980469	63.51829910278322	-1050.959594726563	-230.4466400146485	55.1709671020508	-1094.549560546875	-273.0857238769532	39.78439712524415	-1153.203857421875	-418.1019287109376	812.8762207031252	-883.8464355468752	-387.4559631347657	754.9218750000001	-870.0113525390627	-354.8601379394532	750.6618041992189	-873.9782714843752	-425.9229736328126	679.0166625976564	-875.1215820312502	-454.9034729003907	580.1409301757814	-869.2706298828127	-437.2400817871095	530.5696411132814	-973.041687011719	-573.6962280273439	467.0433044433595	-868.483581542969	-679.0525512695314	500.1855468750001	-887.9563598632815	-660.9083862304689	460.8857727050782	-870.2587890625002	-686.6382446289064	410.0015563964845	-890.0034790039065	-821.3707275390627	399.1184692382814	-899.5115966796877	-771.6372070312502	364.3413085937501	-960.4556274414065	-850.7657470703127	429.7802124023439	-971.6826171875002	-797.5296020507815	225.4529876708985	-926.9504394531252	-813.090515136719	228.7342071533204	-876.476257324219	-863.054138183594	267.5506896972657	-854.899841308594	-4217.086914062501	853.0508422851565	-3944.660644531251	
653	3.26	-155.3648376464844	1772.39111328125	-1123.546630859375	-327.1161499023438	1694.073608398438	-1199.256958007813	-309.3536071777344	1701.405395507813	-1047.314453125	-362.3436279296876	1551.8466796875	-1132.263916015625	-403.1859130859376	1244.086669921875	-1111.3623046875	-201.4396667480469	1494.649291992188	-1133.28173828125	-286.1709899902344	1561.923217773438	-1272.210693359375	-167.205078125	1537.18994140625	-1382.970947265625	-126.6363983154297	1551.009399414063	-1359.751342773438	-104.6268615722657	1533.129028320313	-1414.164794921875	-56.94588470458986	1526.209350585938	-1424.7001953125	-28.24892044067384	1455.396606445313	-1385.47900390625	223.9975280761719	1547.160888671875	-1394.5185546875	210.5407867431641	1538.825561523438	-1466.088623046875	289.1318664550782	1586.653442382813	-1410.020141601563	-277.2727966308594	1573.229248046875	-1004.068664550781	-131.3307342529297	1556.03271484375	-887.1800537109377	-112.8278427124024	1583.711547851563	-925.2545166015627	-64.17758941650392	1578.2705078125	-891.4425048828127	-18.95734786987305	1582.843627929688	-891.936218261719	0.401338815689087	1502.161376953125	-917.7835693359377	243.0678863525391	1586.421997070313	-971.328308105469	243.6628570556641	1602.29150390625	-896.825134277344	325.6211242675782	1604.65380859375	-976.7075195312502	-236.898666381836	1037.676025390625	-1194.149536132813	-260.4947204589844	1046.050537109375	-967.714050292969	-417.9854431152345	1134.563720703125	-1105.037231445313	-433.7005920410157	1108.51220703125	-1131.599365234375	-439.8677673339845	1112.379760742188	-1077.363403320313	-341.2308044433594	830.4136962890627	-1255.927978515625	-300.3659973144532	757.2702026367189	-1243.56005859375	-253.2549133300782	765.8091430664064	-1232.477905273438	-323.2275085449219	702.4836425781251	-1230.38671875	-292.5426635742188	527.8291625976564	-1194.90380859375	-290.9949035644532	521.6783447265626	-1075.225463867188	-283.2392272949219	341.4888610839844	-1117.05517578125	-331.9875183105469	296.3136291503907	-1176.06591796875	-295.2139282226563	291.3679504394532	-1148.691040039063	-309.0479431152344	219.6598205566407	-1107.485717773438	-375.9096679687501	128.4452056884766	-1139.127075195313	-344.3933715820313	140.9564208984375	-1056.172607421875	-444.6856994628907	112.6433563232422	-1096.805419921875	-242.3683471679688	63.39485931396486	-1050.904663085938	-230.5156402587891	55.22471237182619	-1094.525634765625	-272.6223144531251	39.4800033569336	-1153.0703125	-419.3315734863282	813.0740966796877	-883.7871704101565	-388.7708129882814	755.0541381835939	-870.229431152344	-356.6162414550782	750.5253906250001	-874.4885253906252	-427.6839599609376	679.2579345703126	-875.3787231445315	-456.9363098144532	580.1223754882814	-869.3878173828127	-439.5581359863282	530.7575073242189	-973.2799072265627	-576.1076660156251	467.1571044921876	-869.177429199219	-681.3545532226564	500.3195800781251	-887.7758789062502	-663.0737304687501	460.9832458496095	-870.132507324219	-688.6586914062501	410.2468566894532	-889.9951171875002	-823.606140136719	399.2799072265626	-899.3503417968752	-773.8052978515627	364.6054992675782	-960.2946777343752	-853.4309082031252	430.0892944335939	-971.259460449219	-799.8757324218752	225.5099029541016	-926.6218261718752	-815.476745605469	228.6811523437501	-876.3363037109377	-865.326110839844	267.9212646484376	-854.4118652343752	-4216.888671875001	853.0244140625002	-3944.697021484376	
654	3.265	-154.8460845947266	1772.091674804688	-1123.544189453125	-326.5863037109376	1693.808715820313	-1199.28125	-308.6811218261719	1701.1669921875	-1047.31396484375	-361.8005065917969	1551.817626953125	-1132.164916992188	-403.1502685546876	1244.136108398438	-1111.415893554688	-200.8933868408204	1494.388061523438	-1133.2861328125	-285.7286071777344	1561.809936523438	-1272.067260742188	-166.6077423095703	1537.129150390625	-1382.848876953125	-126.2234954833985	1550.957275390625	-1359.660522460938	-104.0387344360352	1533.090209960938	-1414.097045898438	-56.59046936035158	1526.257446289063	-1424.662231445313	-27.94451713562012	1455.461547851563	-1385.672973632813	224.5863189697266	1547.312744140625	-1394.46826171875	210.8941955566407	1538.990112304688	-1466.037841796875	289.7810363769532	1586.725463867188	-1409.919921875	-276.8017883300782	1573.146118164063	-1004.092956542969	-130.9141540527344	1555.915893554688	-887.115905761719	-112.3763046264649	1583.564331054688	-925.305847167969	-63.6967239379883	1578.117431640625	-891.4085693359377	-18.68223190307618	1582.76171875	-891.9603271484377	0.8313502669334414	1501.8505859375	-917.8289794921877	243.5532379150391	1586.095092773438	-971.345397949219	243.9466247558594	1602.056030273438	-896.789489746094	326.1518859863282	1604.458984375	-976.760192871094	-236.9619750976563	1037.542724609375	-1194.041137695313	-260.9595642089844	1045.933715820313	-967.6031494140627	-418.1370239257814	1134.677490234375	-1105.1689453125	-433.800750732422	1108.5712890625	-1131.730102539063	-440.1220092773439	1112.434204101563	-1077.482177734375	-341.2030334472657	830.2764892578127	-1255.953735351563	-300.2743225097657	757.1723022460939	-1243.507202148438	-253.1354064941407	765.7575683593751	-1232.475830078125	-323.1782836914063	702.3576049804689	-1230.339599609375	-292.4480285644532	527.7758789062501	-1194.807006835938	-291.4355773925782	521.7255249023439	-1075.26025390625	-283.1783447265626	341.4993896484376	-1116.802612304688	-332.3145141601563	296.3077392578126	-1176.059326171875	-295.1306457519532	291.4023132324219	-1148.517822265625	-309.0651855468751	219.588607788086	-1107.32763671875	-375.8384094238282	128.4544372558594	-1139.0849609375	-344.4642333984376	140.9239807128907	-1056.0888671875	-444.6329650878907	112.4874725341797	-1096.741821289063	-242.3346710205079	63.08953094482423	-1050.961181640625	-230.4970855712891	55.25841522216798	-1094.543823242188	-272.7125549316407	39.57516098022462	-1153.007446289063	-420.6836547851564	813.2708740234377	-884.0053710937502	-390.3843688964845	755.0756835937501	-870.5839843750002	-357.9479370117188	750.3012695312501	-874.7290649414065	-429.4049072265626	679.4163208007814	-875.5505981445315	-459.1104736328126	580.4631347656251	-869.470642089844	-441.8225097656251	531.0372314453126	-973.466003417969	-578.0968017578126	467.338104248047	-868.5146484375002	-683.7078857421876	500.3355712890626	-887.6009521484377	-665.4602661132814	461.2154846191407	-870.0405883789065	-691.1462402343751	410.4440307617189	-889.6271972656252	-825.9194335937502	399.5412902832032	-898.9727783203127	-776.2702636718752	364.7232971191407	-960.2295532226565	-855.7316894531252	430.0467224121095	-970.8201904296877	-802.5758056640627	225.8960113525391	-926.3594970703127	-817.5457153320315	228.8747100830079	-875.6506958007815	-867.551452636719	268.0724792480469	-853.7312011718752	-4217.073730468751	853.0939941406252	-3944.712890625001	
655	3.27	-154.3673095703125	1772.06103515625	-1123.635986328125	-326.0498657226563	1693.583374023438	-1199.28466796875	-308.1944274902344	1701.066284179688	-1047.354614257813	-361.2881164550782	1551.722900390625	-1132.124389648438	-403.1861877441407	1244.209106445313	-1111.507202148438	-200.3675689697266	1494.163452148438	-1133.28515625	-285.2390136718751	1561.693725585938	-1271.895385742188	-166.1376190185547	1537.148193359375	-1382.76025390625	-125.7734527587891	1550.938598632813	-1359.575073242188	-103.5216674804688	1533.078125	-1414.017944335938	-56.16617584228517	1526.309448242188	-1424.584594726563	-27.43869018554688	1455.462158203125	-1385.712280273438	224.9776763916016	1547.369018554688	-1394.373046875	211.4270629882813	1539.33447265625	-1466.445190429688	290.2975158691407	1586.82763671875	-1409.858764648438	-276.2699584960938	1572.984497070313	-1004.096618652344	-130.4178771972657	1555.681762695313	-887.0742797851565	-111.6783218383789	1583.338745117188	-925.3091430664065	-63.28027725219728	1577.921997070313	-891.3284912109377	-18.15084648132325	1582.678955078125	-892.0051269531252	1.141093611717224	1501.6298828125	-917.8493652343752	244.0990905761719	1585.725341796875	-971.3115844726565	244.4254760742188	1601.81640625	-896.827331542969	326.5176391601563	1604.246948242188	-976.778747558594	-237.1890716552735	1037.350952148438	-1193.969604492188	-261.5153198242188	1045.490600585938	-967.298767089844	-418.2453918457032	1134.677368164063	-1105.317016601563	-433.8030700683595	1108.589477539063	-1131.833862304688	-440.2822570800782	1112.54296875	-1077.56396484375	-341.2445678710938	830.164001464844	-1255.898193359375	-300.2600097656251	757.1152954101564	-1243.422119140625	-253.1377105712891	765.7288208007814	-1232.319458007813	-323.0749206542969	702.2542724609376	-1230.240356445313	-292.3580017089844	527.7562255859376	-1194.635620117188	-292.0070495605469	521.6507568359376	-1075.288696289063	-283.1575622558594	341.4227294921876	-1116.609497070313	-332.1968383789063	296.8011169433594	-1175.841064453125	-295.0350341796876	291.4307861328126	-1148.396118164063	-309.0828857421876	219.5042114257813	-1107.159301757813	-375.8289794921876	128.4265899658203	-1139.0048828125	-344.4672851562501	140.8306427001953	-1055.958740234375	-444.657928466797	112.4861297607422	-1096.745971679688	-242.3143463134766	63.06953048706056	-1050.953369140625	-230.5460205078126	55.18567657470705	-1094.360473632813	-272.7608337402344	39.49701309204102	-1152.843139648438	-421.8859863281251	813.4964599609377	-884.136657714844	-391.5613098144532	755.1029663085939	-870.8211669921877	-359.5782470703126	750.3630371093751	-874.8154296875002	-431.1480407714845	679.6478271484376	-875.733093261719	-461.3412475585939	580.5168457031251	-869.6111450195315	-444.196990966797	531.2656250000001	-973.6958007812502	-580.1611938476564	467.5250244140626	-868.5306396484377	-685.8026733398439	500.7605895996095	-887.3787231445315	-667.5217895507814	461.2512512207032	-869.8892822265627	-693.2579345703126	410.3540039062501	-889.6551513671877	-828.1422119140627	399.802215576172	-898.7473144531252	-778.760192871094	364.8742065429688	-960.0891723632815	-858.0991210937502	430.3696594238282	-970.636901855469	-804.919860839844	225.9707031250001	-926.050720214844	-819.8420410156252	229.1842346191407	-875.4065551757815	-869.5487060546877	268.4484252929688	-853.230163574219	-4216.996582031251	853.1334228515627	-3944.761718750001	
